<svg xmlns="http://www.w3.org/2000/svg" width="140" height="40"><g fill="none" fill-rule="evenodd" transform="translate(-.526)"><rect width="140" height="40" x=".526" fill="#000" fill-opacity=".2" rx="3"/><path fill="#FFF" fill-rule="nonzero" d="M28.811 18.955c.034 3.899 3.385 5.187 3.426 5.202-.02.09-.524 1.86-1.782 3.656-1.05 1.582-2.15 3.128-3.897 3.155-1.696.04-2.267-1.005-4.213-1.005-1.964 0-2.572.978-4.2 1.045-1.663.061-2.935-1.688-4.022-3.255-2.175-3.2-3.868-9.02-1.599-12.978 1.1-1.941 3.106-3.192 5.25-3.226 1.665-.034 3.21 1.134 4.234 1.134 1.003 0 2.915-1.397 4.885-1.188.826.024 3.171.328 4.684 2.551-.122.074-2.795 1.656-2.766 4.909zm-3.205-9.566c-.913 1.087-2.374 1.917-3.798 1.811-.186-1.466.535-3.024 1.342-3.975.913-1.079 2.497-1.905 3.764-1.962.167 1.523-.432 3.023-1.308 4.126zm26.201 21.316h-1.962l-1.076-3.403h-3.736l-1.024 3.403h-1.91L45.8 19.118h2.285l3.72 11.587zm-3.361-4.831l-.972-3.026c-.104-.31-.296-1.036-.58-2.183h-.035a83.025 83.025 0 01-.546 2.183l-.955 3.026h3.088zm12.881.551c0 1.421-.381 2.544-1.143 3.369-.683.733-1.53 1.1-2.543 1.1-1.091 0-1.876-.395-2.354-1.186h-.035v4.401H53.41v-9.008c0-.895-.024-1.81-.069-2.75h1.62l.104 1.324h.035c.614-.998 1.546-1.496 2.797-1.496.978 0 1.795.39 2.448 1.168.655.78.982 1.806.982 3.078zm-1.876.068c0-.813-.182-1.485-.547-2.01-.399-.551-.933-.827-1.603-.827-.456 0-.867.153-1.237.456-.37.305-.612.702-.725 1.195a2.46 2.46 0 00-.086.566v1.393c0 .608.185 1.12.555 1.54.37.418.85.627 1.442.627.693 0 1.232-.27 1.619-.808.388-.539.582-1.25.582-2.132zm11.413-.068c0 1.421-.38 2.544-1.144 3.369-.68.733-1.529 1.1-2.54 1.1-1.093 0-1.878-.395-2.355-1.186h-.035v4.401h-1.84v-9.008c0-.895-.023-1.81-.068-2.75H64.5l.103 1.324h.035c.613-.998 1.546-1.496 2.798-1.496.978 0 1.793.39 2.448 1.168.653.78.98 1.806.98 3.078zm-1.876.068c0-.813-.183-1.485-.547-2.01-.398-.551-.931-.827-1.603-.827a1.91 1.91 0 00-1.238.456c-.37.305-.61.702-.724 1.195-.05.185-.079.375-.086.566v1.393c0 .608.185 1.12.554 1.54.37.417.85.627 1.443.627.694 0 1.234-.27 1.62-.808.387-.539.581-1.25.581-2.132zm12.54.963c0 .985-.339 1.787-1.02 2.406-.75.677-1.794 1.015-3.134 1.015-1.237 0-2.23-.24-2.98-.722l.427-1.548a5.022 5.022 0 002.664.74c.693 0 1.233-.158 1.621-.473.387-.315.579-.738.579-1.266 0-.47-.159-.866-.477-1.187-.318-.322-.847-.621-1.587-.897-2.014-.756-3.02-1.864-3.02-3.322 0-.953.353-1.734 1.059-2.34.704-.61 1.642-.914 2.815-.914 1.047 0 1.916.184 2.61.55l-.46 1.514c-.648-.355-1.38-.533-2.201-.533-.648 0-1.154.161-1.518.481-.306.287-.46.636-.46 1.05 0 .457.175.836.528 1.134.306.275.864.573 1.673.895.989.4 1.716.87 2.183 1.408.466.537.699 1.208.699 2.009zm6.092-3.713h-2.031V27.8c0 1.032.358 1.547 1.076 1.547.329 0 .601-.03.818-.086l.05 1.41c-.363.136-.84.205-1.432.205-.728 0-1.296-.223-1.706-.67-.41-.448-.616-1.199-.616-2.253v-4.21h-1.21v-1.396h1.21v-1.53l1.81-.55v2.08h2.03v1.396zm9.163 2.716c0 1.284-.366 2.339-1.093 3.163-.763.849-1.776 1.272-3.038 1.272-1.217 0-2.186-.407-2.909-1.22-.721-.813-1.083-1.84-1.083-3.077 0-1.295.372-2.355 1.118-3.18.744-.825 1.748-1.238 3.01-1.238 1.217 0 2.196.407 2.935 1.221.707.79 1.06 1.81 1.06 3.059zm-1.912.06c0-.77-.163-1.432-.494-1.982-.387-.668-.938-1-1.654-1-.742 0-1.304.334-1.69 1-.33.551-.494 1.223-.494 2.017 0 .77.164 1.431.495 1.982.397.666.955 1 1.672 1 .703 0 1.256-.34 1.654-1.018.34-.561.511-1.23.511-2zm7.9-2.537a3.176 3.176 0 00-.58-.05c-.648 0-1.15.246-1.503.74-.306.434-.46.985-.46 1.65v4.383h-1.842l.017-5.724c0-.963-.023-1.84-.069-2.63h1.605l.068 1.598h.051a2.86 2.86 0 01.92-1.323c.385-.29.852-.447 1.332-.447.17 0 .324.012.46.034v1.77h.001zm8.24 2.15c0 .333-.021.613-.068.843h-5.527c.021.825.289 1.456.802 1.891.466.39 1.068.585 1.807.585.82 0 1.566-.132 2.238-.395l.288 1.288c-.784.344-1.711.516-2.78.516-1.286 0-2.295-.381-3.03-1.143-.733-.762-1.1-1.785-1.1-3.069 0-1.26.342-2.308 1.024-3.145.717-.894 1.683-1.34 2.9-1.34 1.195 0 2.1.446 2.714 1.34.487.71.732 1.588.732 2.63zm-1.757-.481c.012-.55-.108-1.026-.358-1.427-.318-.516-.808-.775-1.469-.775-.601 0-1.091.253-1.465.757-.307.401-.49.883-.546 1.443h3.838v.002zM45.91 14.888c-.4 0-.77-.047-1.11-.142a2.474 2.474 0 01-.879-.435 2.002 2.002 0 01-.578-.74c-.137-.296-.206-.65-.206-1.06h.855c.006.303.064.56.174.771.11.213.253.382.433.512.178.13.387.223.625.28.238.057.492.085.762.085.231 0 .448-.033.648-.1.19-.06.368-.157.523-.284.305-.252.48-.63.474-1.028 0-.246-.047-.446-.141-.6a.994.994 0 00-.371-.36 1.6 1.6 0 00-.537-.176 4.197 4.197 0 00-.643-.048 12.372 12.372 0 00-.602.02v-.74c.075.013.175.02.3.02h.302c.213 0 .408-.022.588-.063.177-.041.33-.108.46-.203a.957.957 0 00.3-.375c.073-.155.109-.345.109-.573a1.049 1.049 0 00-.117-.52.936.936 0 00-.32-.337 1.427 1.427 0 00-.46-.185 2.512 2.512 0 00-.542-.056c-.495 0-.884.108-1.166.326-.282.219-.448.574-.498 1.066h-.856c.013-.36.086-.674.222-.943.135-.268.314-.488.54-.663a2.39 2.39 0 01.794-.393c.305-.088.635-.132.993-.132.32 0 .618.035.898.108.279.074.521.185.728.337.207.151.37.342.49.574.118.23.178.503.178.818 0 .184-.032.354-.094.512a1.638 1.638 0 01-1.016.956v.03c.206.038.403.113.583.221.322.193.563.499.677.858.057.177.085.357.085.54a2.028 2.028 0 01-.598 1.374 2.5 2.5 0 01-.807.535c-.33.143-.73.213-1.2.213zm5.183-.047a2.614 2.614 0 01-.62-.072 1.392 1.392 0 01-.512-.236 1.156 1.156 0 01-.35-.426 1.427 1.427 0 01-.126-.63c0-.278.047-.505.141-.682.094-.177.218-.32.371-.432a1.7 1.7 0 01.528-.25 5.94 5.94 0 01.606-.142c.22-.045.428-.077.626-.1.197-.022.37-.053.52-.095a.867.867 0 00.358-.18c.088-.08.132-.194.132-.345a.81.81 0 00-.1-.427.68.68 0 00-.252-.246 1.027 1.027 0 00-.35-.114 2.608 2.608 0 00-.38-.028c-.338 0-.62.064-.846.193-.225.131-.348.375-.366.735h-.8a1.75 1.75 0 01.188-.767c.113-.209.264-.377.452-.508a1.88 1.88 0 01.644-.278c.24-.057.5-.086.776-.086.219 0 .436.016.653.048.217.031.412.095.588.193.175.1.316.236.423.413.106.177.16.407.16.692v2.52c0 .189.01.328.033.416.02.089.095.133.22.133a.94.94 0 00.245-.047v.625c-.138.082-.33.123-.574.123a.684.684 0 01-.493-.176c-.123-.116-.184-.307-.184-.572-.203.253-.467.45-.766.572a2.493 2.493 0 01-.945.176zm.179-.701c.263 0 .489-.036.677-.11a1.42 1.42 0 00.46-.273c.112-.1.202-.224.264-.361a.916.916 0 00.084-.364v-.825a.875.875 0 01-.395.17c-.163.032-.334.06-.511.086l-.542.076a1.849 1.849 0 00-.489.133.89.89 0 00-.353.27c-.09.117-.135.276-.135.478 0 .133.026.244.08.337a.67.67 0 00.207.222c.09.06.19.1.295.123.113.025.232.038.358.038zm3.753-4.301h3.329v.71h-2.53v4.188h-.799V9.839zm4.205 0h.8v.663h.018c.132-.271.339-.468.621-.593.282-.123.592-.184.93-.184.377 0 .704.07.983.209.28.139.512.326.696.564.186.237.325.51.419.819.094.31.14.638.14.985 0 .354-.044.684-.135.99a2.332 2.332 0 01-.415.805c-.188.233-.426.42-.696.545a2.242 2.242 0 01-.972.2 2.352 2.352 0 01-.837-.162 1.705 1.705 0 01-.41-.232c-.13-.1-.24-.223-.324-.365h-.018v2.52h-.8V9.84zm2.304 4.301c.27 0 .498-.054.686-.161.188-.107.339-.25.452-.426.113-.177.194-.38.244-.607.05-.23.076-.465.075-.7 0-.226-.03-.45-.09-.668a1.808 1.808 0 00-.271-.583 1.34 1.34 0 00-1.143-.56c-.27 0-.498.054-.686.162a1.378 1.378 0 00-.461.42 1.75 1.75 0 00-.258.594c-.11.45-.108.919.004 1.368.056.225.146.422.268.593.123.17.28.307.475.411.194.105.43.157.705.157zm3.951 2.548c-.094 0-.188-.006-.282-.019a1.324 1.324 0 01-.273-.066v-.739l.23.076a.777.777 0 00.24.038.631.631 0 00.395-.114.959.959 0 00.264-.331l.329-.825-1.928-4.87h.903l1.42 4.008h.019l1.363-4.007h.846l-2.115 5.542c-.094.24-.186.442-.278.606-.08.149-.18.285-.3.402a1.02 1.02 0 01-.368.228 1.4 1.4 0 01-.465.071zm6.198-1.847c-.645 0-1.15-.145-1.513-.436-.364-.29-.561-.704-.593-1.24h.809c.025.36.157.618.395.776.238.158.536.237.893.237.382 0 .677-.082.884-.246a.765.765 0 00.31-.626c0-.246-.078-.439-.235-.578-.157-.139-.423-.208-.8-.208h-.648v-.654h.517c.282 0 .524-.058.724-.174.2-.118.301-.321.301-.612 0-.183-.086-.344-.259-.483-.172-.14-.427-.209-.766-.209-.144 0-.286.016-.428.048a1.232 1.232 0 00-.38.151.904.904 0 00-.282.275.937.937 0 00-.141.417h-.81c.02-.303.092-.554.217-.754a1.48 1.48 0 01.47-.473c.188-.116.401-.2.64-.25a3.45 3.45 0 01.724-.077c.25 0 .485.026.705.076.22.05.411.13.578.242.167.11.297.248.396.412.097.164.145.36.145.587 0 .284-.08.515-.24.692-.141.165-.33.281-.54.331v.02c.112.018.225.056.338.113a.996.996 0 01.3.231c.088.1.16.218.217.36.056.144.085.309.085.498.011.474-.224.92-.621 1.175a2.094 2.094 0 01-.644.284 2.95 2.95 0 01-.748.095zm3.18-5.002h.8v3.998l2.294-3.998h1.025v4.898h-.8v-3.998l-2.294 3.998h-1.024V9.839zm6.707.71h-1.74v-.71h4.278v.71h-1.74v4.188h-.798v-4.188zm5.455 4.292a2.54 2.54 0 01-1.02-.19c-.28-.118-.53-.3-.729-.53a2.259 2.259 0 01-.436-.815 3.463 3.463 0 01-.147-1.032c0-.367.057-.706.17-1.018.112-.314.271-.583.475-.81a2.147 2.147 0 011.64-.72c.433 0 .791.089 1.076.269.286.18.514.41.687.687.173.278.292.581.358.91.066.328.092.64.08.937h-3.64c-.006.215.02.418.076.611a1.335 1.335 0 00.752.867c.194.089.423.133.686.133.339 0 .617-.079.832-.237.217-.158.36-.398.428-.72h.79c-.106.556-.342.97-.705 1.246-.364.274-.821.412-1.373.412zm1.307-3.022a1.658 1.658 0 00-.126-.54 1.362 1.362 0 00-1.275-.843c-.207 0-.393.036-.559.11-.161.068-.307.17-.428.297-.12.126-.213.274-.282.44-.07.17-.111.352-.122.536h2.792zm4.705-1.98h2.248c.213 0 .418.016.616.047.198.032.374.09.53.176a.964.964 0 01.377.364c.094.158.14.36.14.607 0 .265-.062.48-.187.644-.126.164-.301.3-.527.407v.01c.282.057.506.19.673.398.166.208.249.476.249.805 0 .208-.036.4-.109.578a1.304 1.304 0 01-.305.454 1.464 1.464 0 01-.47.3 1.6 1.6 0 01-.592.108h-2.643V9.839zm2.492 4.216c.263 0 .462-.077.598-.232a.856.856 0 00.201-.583.687.687 0 00-.216-.53c-.144-.133-.385-.2-.724-.2h-1.56v1.545h1.701zm-.329-2.208c.345 0 .585-.063.719-.19a.655.655 0 00.202-.501.579.579 0 00-.197-.47c-.132-.11-.373-.165-.724-.165h-1.373v1.326H95.2z"/></g></svg>