<svg xmlns="http://www.w3.org/2000/svg" width="140" height="40"><defs><linearGradient id="a" x1="80.747%" x2="-156.778%" y1="50%" y2="50%"><stop offset="0%" stop-color="#FEE000"/><stop offset="42%" stop-color="#FBBC0E"/><stop offset="78%" stop-color="#FAA418"/><stop offset="100%" stop-color="#F99B1C"/></linearGradient><linearGradient id="b" x1="70.897%" x2="-7.875%" y1="17.813%" y2="194.699%"><stop offset="0%" stop-color="#EF4547"/><stop offset="100%" stop-color="#C6186D"/></linearGradient><linearGradient id="c" x1="-8.238%" x2="56.136%" y1="-95.476%" y2="48.895%"><stop offset="0%" stop-color="#279E6F"/><stop offset="4%" stop-color="#2BA06F"/><stop offset="46%" stop-color="#53B26C"/><stop offset="80%" stop-color="#6BBD6A"/><stop offset="100%" stop-color="#74C169"/></linearGradient></defs><g fill="none" fill-rule="evenodd"><rect width="140" height="40" fill="#000" fill-opacity=".2" rx="3"/><path fill="#FFF" fill-rule="nonzero" d="M67.555 22.605c-2.306.011-4.167 1.901-4.16 4.224.008 2.323 1.88 4.2 4.186 4.197 2.305-.003 4.172-1.887 4.172-4.21a4.168 4.168 0 00-1.213-3.002 4.104 4.104 0 00-2.985-1.209zm0 6.768a2.534 2.534 0 01-2.466-1.448 2.57 2.57 0 01.432-2.842 2.523 2.523 0 012.782-.64 2.555 2.555 0 011.612 2.373c.032.656-.2 1.298-.645 1.78a2.41 2.41 0 01-1.715.777zM58.4 22.605c-2.307.006-4.173 1.894-4.169 4.218.004 2.324 1.876 4.205 4.183 4.203 2.306-.002 4.175-1.886 4.175-4.21a4.168 4.168 0 00-1.214-3.003 4.104 4.104 0 00-2.986-1.208h.01zm0 6.768a2.534 2.534 0 01-2.472-1.441 2.57 2.57 0 01.425-2.845 2.523 2.523 0 012.783-.644 2.555 2.555 0 011.614 2.373c.033.657-.2 1.299-.645 1.78a2.41 2.41 0 01-1.716.777h.01zm-10.905-5.47v1.783h4.248a3.748 3.748 0 01-.983 2.25 4.329 4.329 0 01-3.274 1.307c-2.58-.039-4.65-2.156-4.65-4.755 0-2.6 2.07-4.717 4.65-4.755A4.505 4.505 0 0150.7 21.01l1.25-1.258a6.161 6.161 0 00-4.455-1.853 6.488 6.488 0 00-5.834 3.198 6.591 6.591 0 000 6.692 6.488 6.488 0 005.834 3.197 5.877 5.877 0 004.533-1.833 5.97 5.97 0 001.534-4.18 5.84 5.84 0 00-.099-1.12l-5.968.05zm44.552 1.388a3.937 3.937 0 00-3.58-2.685 3.92 3.92 0 00-2.871 1.247 3.98 3.98 0 00-1.062 2.964 4.138 4.138 0 001.187 2.994 4.074 4.074 0 002.963 1.216 4.15 4.15 0 003.481-1.863l-1.426-.99a2.386 2.386 0 01-2.055 1.168 2.123 2.123 0 01-2.026-1.278l5.595-2.328-.206-.445zm-5.704 1.406a2.32 2.32 0 01.58-1.69c.41-.463.988-.74 1.603-.767a1.623 1.623 0 011.554.892l-3.736 1.565h-.001zm-4.542 4.082h1.84V18.395h-1.84v12.384zm-3.008-7.232h-.07a2.94 2.94 0 00-2.202-.991c-2.23.112-3.98 1.966-3.98 4.216 0 2.249 1.75 4.103 3.98 4.215a2.845 2.845 0 002.203-.991h.058v.605c0 1.615-.855 2.477-2.231 2.477a2.312 2.312 0 01-2.104-1.497l-1.603.674a3.982 3.982 0 003.707 2.487c2.153 0 3.932-1.278 3.932-4.39v-7.498h-1.69v.693zm-2.104 5.826a2.559 2.559 0 01-2.323-2.557 2.558 2.558 0 012.323-2.556c.635.033 1.23.323 1.65.804.42.481.63 1.113.581 1.752a2.37 2.37 0 01-.578 1.762 2.333 2.333 0 01-1.664.795h.01zm23.97-10.978h-4.395v12.384h1.84v-4.696h2.566a3.817 3.817 0 003.535-1.84 3.879 3.879 0 000-4.008 3.817 3.817 0 00-3.535-1.84h-.01zm0 5.944h-2.565v-4.22h2.605c1.165 0 2.11.951 2.11 2.125a2.117 2.117 0 01-2.11 2.125l-.04-.03zm11.338-1.783a3.437 3.437 0 00-3.274 1.892l1.632.685a1.74 1.74 0 011.671-.913 1.76 1.76 0 011.316.382c.37.3.605.738.651 1.214v.128a4.036 4.036 0 00-1.918-.476c-1.76 0-3.54.99-3.54 2.785.036.772.38 1.497.954 2.01a2.83 2.83 0 002.095.714 2.58 2.58 0 002.36-1.19h.059v.992h1.77v-4.765c0-2.17-1.632-3.429-3.727-3.429l-.05-.03zm-.226 6.786c-.6 0-1.435-.306-1.435-1.05 0-.99 1.041-1.317 1.966-1.317a3.245 3.245 0 011.671.416 2.229 2.229 0 01-2.153 1.982l-.049-.03zm10.452-6.488l-2.105 5.368h-.058l-2.183-5.368h-1.967l3.275 7.51-1.868 4.17h1.917l5.034-11.68h-2.045zm-16.528 7.925h1.839V18.395h-1.839v12.384z"/><path fill="#5BC9F4" fill-rule="nonzero" d="M10.855 8.786c-.3.365-.443.834-.4 1.306v19.815a1.79 1.79 0 00.417 1.261l.063.064 11.2-11.097v-.261L10.916 8.724l-.062.062z"/><path fill="url(#a)" fill-rule="nonzero" d="M25.86 23.846l-3.743-3.72v-.26l3.743-3.712.081.045 4.449 2.504c1.27.712 1.27 1.882 0 2.603l-4.43 2.503-.1.037z"/><path fill="url(#b)" fill-rule="nonzero" d="M25.96 23.8L22.134 20l-11.28 11.214a1.484 1.484 0 001.884.053l13.23-7.466"/><path fill="url(#c)" fill-rule="nonzero" d="M25.96 16.2L12.73 8.732a1.484 1.484 0 00-1.885.053L22.135 20l3.824-3.8z"/><path fill="#FFF" fill-rule="nonzero" d="M41.873 12.926h.658c.126-.227.242-.511.348-.852.107-.341.199-.716.278-1.123.166-.886.25-1.785.25-2.686l-.001-1.345h4.325v6.006h.743v2.435h-.856v-1.677h-4.89v1.677h-.855v-2.435zm4.965 0V7.678H44.27v.976a13.014 13.014 0 01-.474 3.486c-.074.27-.17.533-.288.786h3.329zm4.713.862a2.5 2.5 0 01-1.021-.193 2.087 2.087 0 01-.738-.54 2.297 2.297 0 01-.451-.81 3.24 3.24 0 01-.15-1.005c0-.36.05-.696.15-1.01a2.3 2.3 0 01.451-.814c.2-.23.446-.412.738-.544a2.448 2.448 0 011.02-.2c.383 0 .721.067 1.016.2.295.132.542.313.743.544.2.231.35.502.451.815.1.313.15.649.15 1.009 0 .36-.05.695-.15 1.004-.1.31-.25.58-.451.81-.2.231-.448.411-.743.54a2.493 2.493 0 01-1.015.194zm0-.7c.206 0 .402-.042.588-.124.185-.082.345-.2.483-.356.138-.154.246-.347.324-.576a2.42 2.42 0 00.118-.792c0-.297-.038-.56-.117-.792a1.71 1.71 0 00-.325-.582 1.382 1.382 0 00-.483-.36 1.432 1.432 0 00-.588-.123 1.432 1.432 0 00-.589.123c-.185.083-.35.206-.483.36a1.702 1.702 0 00-.324.583 2.41 2.41 0 00-.118.791c0 .297.038.56.117.792.08.23.187.422.325.577.274.306.663.48 1.072.478zm5.52.7a2.51 2.51 0 01-.981-.18 1.906 1.906 0 01-.715-.511 2.223 2.223 0 01-.433-.786 3.31 3.31 0 01-.146-1.014c0-.366.047-.709.141-1.028.095-.32.237-.596.429-.834.191-.237.428-.422.713-.558.287-.137.623-.204 1.012-.204.275 0 .534.032.775.1.242.066.454.168.64.307.185.139.337.314.456.526.119.21.194.462.225.753h-.827c-.063-.31-.194-.55-.395-.72-.2-.17-.47-.256-.809-.256-.288 0-.53.054-.724.161a1.294 1.294 0 00-.465.427c-.115.176-.199.38-.25.61-.05.235-.075.475-.074.716 0 .227.026.448.08.663.053.215.136.405.249.573.113.168.258.302.437.403.178.1.396.151.653.151.395 0 .704-.104.927-.312.223-.209.358-.502.409-.881h.818c-.088.612-.31 1.08-.668 1.407-.357.325-.85.487-1.476.487zm4.422-4.291h-1.74v-.71h4.279v.71h-1.74v4.187h-.799V9.497zm3.885 6.139c-.094 0-.188-.007-.282-.02a1.324 1.324 0 01-.272-.065v-.74l.23.076a.777.777 0 00.24.038.64.64 0 00.395-.113.959.959 0 00.263-.332l.329-.824-1.927-4.87h.902l1.42 4.008h.019l1.363-4.008h.846l-2.115 5.542c-.094.24-.186.443-.278.607a1.69 1.69 0 01-.301.402 1.02 1.02 0 01-.366.227 1.4 1.4 0 01-.466.072zm4.412-6.85h3.968v4.898h-.8V9.497H70.59v4.187h-.799V8.786zm5.38 0h.8v1.952h2.463V8.786h.8v4.898h-.8V11.43H75.97v2.255h-.8V8.786zm7.572 5.002a2.5 2.5 0 01-1.021-.193 2.087 2.087 0 01-.738-.54 2.297 2.297 0 01-.451-.81 3.24 3.24 0 01-.15-1.005c0-.36.05-.696.15-1.01a2.3 2.3 0 01.451-.814c.2-.23.446-.412.739-.544a2.44 2.44 0 011.02-.2c.382 0 .72.067 1.015.2.295.132.542.313.743.544.2.231.35.502.451.815.1.313.15.649.15 1.009 0 .36-.05.695-.15 1.004-.1.31-.25.58-.451.81-.2.231-.448.411-.743.54a2.493 2.493 0 01-1.015.194zm0-.7c.206 0 .402-.042.588-.124.185-.082.346-.2.483-.356.138-.154.246-.347.324-.576a2.42 2.42 0 00.118-.792c0-.297-.038-.56-.117-.792a1.71 1.71 0 00-.325-.582 1.382 1.382 0 00-.483-.36 1.432 1.432 0 00-.588-.123 1.432 1.432 0 00-.589.123c-.185.083-.35.206-.483.36a1.702 1.702 0 00-.324.583 2.41 2.41 0 00-.118.791c0 .297.038.56.117.792.08.23.187.422.325.577a1.408 1.408 0 001.072.478zm6.332-4.302h2.247c.213 0 .418.016.616.048.198.031.374.09.53.175a.964.964 0 01.377.365c.094.158.141.36.141.606 0 .265-.063.48-.188.644-.125.164-.3.3-.527.408v.01c.283.056.506.189.673.397.166.208.249.477.249.805 0 .209-.036.401-.108.578a1.304 1.304 0 01-.306.455 1.464 1.464 0 01-.47.299 1.58 1.58 0 01-.592.108h-2.642V8.786zm2.491 4.216c.264 0 .462-.077.598-.231a.856.856 0 00.201-.584.687.687 0 00-.216-.53c-.144-.133-.385-.2-.724-.2h-1.56v1.545h1.701zm-.329-2.207c.345 0 .585-.063.719-.19a.655.655 0 00.203-.502.579.579 0 00-.198-.47c-.131-.11-.373-.165-.724-.165h-1.373v1.327h1.373z"/></g></svg>