<svg xmlns="http://www.w3.org/2000/svg" width="37" height="37"><g fill="none" fill-rule="evenodd" transform="translate(1 1)"><circle cx="17.5" cy="17.5" r="17.5" stroke="#FFF"/><path fill="#FFF" d="M17.5 13.136c.784 0 1.512.196 2.182.588.67.392 1.202.924 1.594 1.594.392.67.588 1.398.588 2.182s-.196 1.512-.588 2.182a4.377 4.377 0 01-1.594 1.594 4.246 4.246 0 01-2.182.588 4.246 4.246 0 01-2.182-.588 4.377 4.377 0 01-1.594-1.594 4.246 4.246 0 01-.588-2.182c0-.784.196-1.512.588-2.182a4.377 4.377 0 011.594-1.594 4.246 4.246 0 012.182-.588zm0 7.339c.82 0 1.52-.291 2.102-.873a2.865 2.865 0 00.873-2.102c0-.82-.291-1.52-.873-2.102a2.865 2.865 0 00-2.102-.873c-.82 0-1.52.291-2.102.873a2.865 2.865 0 00-.873 2.102c0 .82.291 1.52.873 2.102a2.865 2.865 0 002.102.873zm5.578-7.529a1.182 1.182 0 01-.322.721.924.924 0 01-.702.304.985.985 0 01-.721-.304.985.985 0 01-.304-.72c0-.279.101-.52.304-.722a.985.985 0 01.72-.303c.279 0 .52.101.722.303a.985.985 0 01.303.721zm2.884 1.025c.025.708.038 1.885.038 3.529s-.019 2.827-.057 3.548c-.038.721-.145 1.347-.322 1.878a4.423 4.423 0 01-1.044 1.651 4.423 4.423 0 01-1.65 1.044c-.532.177-1.158.284-1.879.322-.721.038-1.904.057-3.548.057-1.644 0-2.827-.019-3.548-.057-.721-.038-1.347-.158-1.878-.36a4.045 4.045 0 01-1.651-1.006 4.423 4.423 0 01-1.044-1.65c-.177-.532-.284-1.158-.322-1.879C9.019 20.327 9 19.144 9 17.5c0-1.644.019-2.827.057-3.548.038-.721.145-1.347.322-1.878a4.423 4.423 0 011.044-1.651 4.423 4.423 0 011.65-1.044c.532-.177 1.158-.284 1.879-.322C14.673 9.019 15.856 9 17.5 9c1.644 0 2.827.019 3.548.057.721.038 1.347.145 1.878.322a4.423 4.423 0 011.651 1.044 4.423 4.423 0 011.044 1.65c.177.532.29 1.164.341 1.898zm-1.613 8.695c.157-.443.261-1.148.313-2.113a57.1 57.1 0 00.04-2.427v-1.252c0-1.07-.014-1.879-.04-2.427-.052-.991-.156-1.696-.313-2.113a2.825 2.825 0 00-1.683-1.683c-.417-.157-1.122-.261-2.113-.313a57.1 57.1 0 00-2.427-.04h-1.252a57.1 57.1 0 00-2.427.04c-.965.052-1.67.156-2.113.313a2.825 2.825 0 00-1.683 1.683c-.157.417-.261 1.122-.313 2.113a57.1 57.1 0 00-.04 2.427v1.252a57.1 57.1 0 00.04 2.427c.052.965.156 1.67.313 2.113.34.81.9 1.37 1.683 1.683.443.157 1.148.261 2.113.313a57.1 57.1 0 002.427.04h1.252c1.07 0 1.879-.014 2.427-.04.991-.052 1.696-.156 2.113-.313.81-.34 1.37-.9 1.683-1.683z"/></g></svg>