<svg width="19" height="14" fill="none" xmlns="http://www.w3.org/2000/svg"><path fill="#F0F0F0" d="M1.056 1.089H18.36v12.219H1.056z"/><path fill-rule="evenodd" clip-rule="evenodd" d="M10.789 1.089H8.626v4.964h-7.57v2.29h7.57v4.965h2.163V8.344h7.57V6.053h-7.57V1.089z" fill="#D80027"/><path fill-rule="evenodd" clip-rule="evenodd" d="M14.364 9.323l3.995 2.351v-2.35h-3.995zm-2.776 0l6.771 3.985V12.18l-4.856-2.858h-1.915zm4.968 3.985l-4.968-2.924v2.924h4.968z" fill="#0052B4"/><path fill-rule="evenodd" clip-rule="evenodd" d="M11.588 9.323l6.771 3.985V12.18l-4.856-2.858h-1.915z" fill="#F0F0F0"/><path fill-rule="evenodd" clip-rule="evenodd" d="M11.588 9.323l6.771 3.985V12.18l-4.856-2.858h-1.915z" fill="#D80027"/><path fill-rule="evenodd" clip-rule="evenodd" d="M4.109 9.323L1.056 11.12V9.323h3.053zm3.717.507v3.478H1.917l5.91-3.478z" fill="#0052B4"/><path fill-rule="evenodd" clip-rule="evenodd" d="M5.912 9.323l-4.856 2.858v1.127l6.77-3.985H5.913z" fill="#D80027"/><path fill-rule="evenodd" clip-rule="evenodd" d="M5.05 5.073l-3.994-2.35v2.35H5.05zm2.777 0L1.056 1.09v1.126l4.856 2.858h1.915zM2.86 1.089l4.967 2.923V1.09H2.859z" fill="#0052B4"/><path fill-rule="evenodd" clip-rule="evenodd" d="M7.827 5.073L1.056 1.09v1.126l4.856 2.858h1.915z" fill="#F0F0F0"/><path fill-rule="evenodd" clip-rule="evenodd" d="M7.827 5.073L1.056 1.09v1.126l4.856 2.858h1.915z" fill="#D80027"/><path fill-rule="evenodd" clip-rule="evenodd" d="M15.306 5.073l3.053-1.796v1.796h-3.053zm-3.718-.506V1.089h5.91l-5.91 3.478z" fill="#0052B4"/><path fill-rule="evenodd" clip-rule="evenodd" d="M13.503 5.073l4.856-2.858V1.09l-6.77 3.984h1.914z" fill="#D80027"/><path stroke="#CCC" d="M.5.5h18v13H.5z"/></svg>