<svg xmlns="http://www.w3.org/2000/svg" width="37" height="37"><g fill="none" fill-rule="evenodd" stroke="#FFF" transform="translate(1 1)"><circle cx="17.5" cy="17.5" r="17.5"/><path stroke-linecap="round" stroke-linejoin="round" d="M22.979 18.794c-.269-.539-1.012-.987-2-.209-1.335 1.052-3.479 1.052-3.479 1.052s-2.144 0-3.48-1.052c-.987-.778-1.73-.33-1.999.21-.468.94.061 1.393 1.254 2.16 1.019.653 2.418.898 3.322.989l-.754.754-2.8 2.801a1.09 1.09 0 000 1.541l.128.129a1.09 1.09 0 001.54 0l2.802-2.8 2.8 2.8a1.09 1.09 0 001.542 0l.128-.129a1.09 1.09 0 000-1.54l-2.8-2.802-.758-.757c.905-.093 2.29-.338 3.3-.987 1.193-.766 1.721-1.22 1.254-2.16m-5.479-8.58a2.338 2.338 0 110 4.676 2.338 2.338 0 010-4.676m0 7.09a4.753 4.753 0 100-9.505 4.753 4.753 0 000 9.506"/></g></svg>