<svg width="18" height="16" fill="none" xmlns="http://www.w3.org/2000/svg"><path d="M16.887 11.636l-2.151-.956a.187.187 0 01-.111-.171v-.857a.184.184 0 01.056-.133 2.479 2.479 0 00.584-1.673.187.187 0 01.066-.131 1.407 1.407 0 00.403-1.05 1.182 1.182 0 00-.238-.761.187.187 0 01-.025-.199c.19-.404.232-.863.117-1.295-.265-1.08-1.65-1.479-2.797-1.396h-.027c-.499-.035-1 .02-1.48.163a.19.19 0 00-.128.139 5.713 5.713 0 01-.075.309.185.185 0 00.012.128c.166.35.25.734.247 1.122a2.46 2.46 0 01-.493 1.523.18.18 0 00-.038.086 4.025 4.025 0 01-.525 1.456.186.186 0 00-.025.116c.025.306.094.607.204.894a.185.185 0 00.105.104l1.69.67a3.731 3.731 0 012.367 3.486v2.165c0 .054-.004.109-.011.163a.187.187 0 00.109.195c.024.011.05.017.077.017h2.825a.375.375 0 00.375-.375V13.35a1.876 1.876 0 00-1.113-1.714z" fill="#CCC"/><path d="M13.5 13.21a2.613 2.613 0 00-1.658-2.44L8.743 9.541a.188.188 0 01-.118-.174V8.205a.185.185 0 01.08-.154 2.601 2.601 0 001.03-2.059.188.188 0 01.076-.135 1.194 1.194 0 00.404-.982 1.275 1.275 0 00-.31-.9.188.188 0 01-.043-.188c.29-.757.377-1.578.252-2.38C9.854.369 8.442 0 7.312 0c-.969 0-2.145.271-2.625 1.006a.188.188 0 01-.154.084 1.073 1.073 0 00-.802.325c-.535.577-.268 1.69-.075 2.371a.19.19 0 01-.049.184.888.888 0 00-.155.209c-.113.214-.17.454-.167.696a1.195 1.195 0 00.404.982.188.188 0 01.075.135 2.6 2.6 0 001.03 2.06.187.187 0 01.081.153v1.164a.187.187 0 01-.119.174l-3.102 1.234A2.611 2.611 0 000 13.217v2.158a.375.375 0 00.375.375h12.75a.375.375 0 00.375-.375V13.21z" fill="#CCC"/></svg>