<svg xmlns="http://www.w3.org/2000/svg" width="37" height="37"><g fill="none" fill-rule="evenodd" stroke="#FFF" transform="translate(1 1)"><circle cx="17.5" cy="17.5" r="17.5"/><path stroke-linecap="round" stroke-linejoin="round" d="M25.667 13.817c.003.071.005.149.005.234 0 1.769-.43 3.477-1.285 5.113-.883 1.742-2.127 3.133-3.72 4.163-1.748 1.157-3.754 1.735-6.007 1.735-2.158 0-4.139-.578-5.93-1.731l-1.714-1.103 2.03.184c.241.022.52.033.833.033a6.792 6.792 0 003.258-.799c-.4-.137-.775-.34-1.12-.608a4.17 4.17 0 01-1.454-2.052l-.234-.727.365.036a4.583 4.583 0 01-.497-.515 4.039 4.039 0 01-.959-2.64v-.946l.548.324a4.046 4.046 0 01-.548-2.066c0-.737.201-1.441.599-2.104l.37-.618.45.564a9.68 9.68 0 003.194 2.609c1.087.558 2.235.9 3.446 1.026-.005-.1-.008-.2-.008-.3 0-.744.187-1.444.558-2.094.372-.65.88-1.165 1.518-1.537a4.065 4.065 0 012.08-.56c.61 0 1.18.12 1.704.362a4.7 4.7 0 011.156.754 6.976 6.976 0 001.952-.768l1.13-.656-.404 1.243a4.263 4.263 0 01-.428.93c.082-.032.164-.066.246-.102l1.597-.691-.986 1.433a8.615 8.615 0 01-1.745 1.874z"/></g></svg>