<svg xmlns="http://www.w3.org/2000/svg" width="37" height="37"><g fill="none" fill-rule="evenodd" stroke="#FFF" transform="translate(1 1)"><circle cx="17.5" cy="17.5" r="17.5"/><path stroke-linecap="round" stroke-linejoin="round" d="M26.647 12.514c-.09.424-.388 1.044-.902 1.9a92.24 92.24 0 01-1.283 2.066c-.515.743-.667.96-.663.942-.09.135-.127.22-.127.215 0-.026.02.014.082.087l.304.337c1.745 1.794 2.721 3.024 2.974 3.814.106.424.055.804-.191 1.094-.235.278-.58.406-.997.406h-2.075c-.37 0-.712-.12-.98-.33-.19-.126-.46-.397-.853-.84A23.53 23.53 0 0021 21.198C20.153 20.395 19.541 20 19.27 20c-.079 0-.103.006-.078-.015.058-.05.051-.024.046.148-.019.132-.03.482-.03 1.02l-.002.872c.037.442-.094.814-.432 1.055-.317.212-.817.295-1.543.295-1.194 0-2.393-.353-3.591-1.052-1.19-.695-2.229-1.683-3.104-2.948a21.643 21.643 0 01-2.049-3.343 21.422 21.422 0 01-1.053-2.444c-.176-.628-.265-1.072-.265-1.365 0-.695.475-1.098 1.203-1.098h2.074c.372 0 .684.095.917.306.208.189.358.473.47.837.32.915.708 1.806 1.167 2.68.407.79.81 1.43 1.208 1.915.204.25.373.416.48.507a3.4 3.4 0 00.004-.19l.001-3.028a2.084 2.084 0 00-.206-.818 1.872 1.872 0 00-.278-.424c-.231-.28-.36-.539-.36-.81a.93.93 0 01.326-.708c.197-.175.438-.267.701-.267h3.27c.36 0 .66.12.849.39.153.219.213.509.213.883v4.113c.089-.057.238-.194.43-.405.423-.468.85-1.052 1.276-1.747.296-.5.581-1.048.862-1.657l.337-.67c.24-.584.715-.907 1.341-.907h2.074c.879 0 1.34.556 1.12 1.389z"/></g></svg>